<?xml version="1.0" encoding="UTF-8" standalone="no"?>
<!-- Created with Inkscape (http://www.inkscape.org/) -->

<svg
   xmlns:dc="http://purl.org/dc/elements/1.1/"
   xmlns:cc="http://creativecommons.org/ns#"
   xmlns:rdf="http://www.w3.org/1999/02/22-rdf-syntax-ns#"
   xmlns:svg="http://www.w3.org/2000/svg"
   xmlns="http://www.w3.org/2000/svg"
   xmlns:sodipodi="http://sodipodi.sourceforge.net/DTD/sodipodi-0.dtd"
   xmlns:inkscape="http://www.inkscape.org/namespaces/inkscape"
   width="1920px"
   height="1080px"
   id="svg2989"
   version="1.1"
   inkscape:version="0.48.1"
   sodipodi:docname="New document 2">
  <defs
     id="defs2991" />
  <sodipodi:namedview
     id="base"
     pagecolor="#ffffff"
     bordercolor="#666666"
     borderopacity="1.0"
     inkscape:pageopacity="0.0"
     inkscape:pageshadow="2"
     inkscape:zoom="0.72880595"
     inkscape:cx="960"
     inkscape:cy="540"
     inkscape:document-units="px"
     inkscape:current-layer="layer1"
     showgrid="false"
     inkscape:window-width="1920"
     inkscape:window-height="1017"
     inkscape:window-x="1272"
     inkscape:window-y="-8"
     inkscape:window-maximized="1" />
  <metadata
     id="metadata2994">
    <rdf:RDF>
      <cc:Work
         rdf:about="">
        <dc:format>image/svg+xml</dc:format>
        <dc:type
           rdf:resource="http://purl.org/dc/dcmitype/StillImage" />
        <dc:title></dc:title>
      </cc:Work>
    </rdf:RDF>
  </metadata>
  <g
     id="layer1"
     inkscape:label="Layer 1"
     inkscape:groupmode="layer">
    <path
       sodipodi:type="star"
       style="fill:#aa0000;fill-opacity:0.00392157;stroke:#000000"
       id="path2997"
       sodipodi:sides="74"
       sodipodi:cx="603.33331"
       sodipodi:cy="503.33334"
       sodipodi:r1="459.75839"
       sodipodi:r2="229.8792"
       sodipodi:arg1="0.29423457"
       sodipodi:arg2="0.33668852"
       inkscape:flatsided="false"
       inkscape:rounded="0"
       inkscape:randomized="0"
       d="M 1043.3333,636.66668 820.30567,579.27701 1030.4408,673.50095 813.08355,597.40396 1014.4709,709.10916 804.35018,614.85313 995.53874,743.23475 794.16848,631.4988 973.78075,775.63185 782.6118,647.22104 949.35368,806.06703 769.76342,661.90656 922.43353,834.321 755.7159,675.44956 893.21425,860.19021 740.57047,687.75245 861.90638,883.48825 724.43624,698.7266 828.73548,904.04726 707.42946,708.29294 793.94055,921.71912 689.67266,716.38254 757.77229,936.37651 671.29379,722.93712 720.4913,947.9138 652.42526,727.90945 682.36618,956.24789 633.20302,731.2637 643.67162,961.31871 613.76557,732.9757 604.68643,963.08974 594.25296,733.03313 565.69149,961.54822 574.80577,731.43557 526.96776,956.70525 555.56412,728.19452 488.79424,948.59572 536.66665,723.33334 451.44599,937.27806 518.24951,716.88706 415.19208,922.83383 500.4454,708.90212 380.29373,905.36708 483.38261,699.43606 347.00239,885.00367 467.18406,688.55706 315.55792,861.89032 451.96647,676.34353 286.18688,836.19355 437.83948,662.88345 259.10089,808.09853 424.90488,648.27381 234.4951,777.80766 413.25586,632.61988 212.54679,745.53919 402.97635,616.03443 193.41411,711.52563 394.14042,598.63696 177.23491,676.01204 386.81173,580.55283 164.12576,639.25429 381.04308,561.91234 154.18111,601.51724 376.87604,542.84978 147.47261,563.07276 374.34063,523.5025 144.0486,524.19786 373.45511,504.0099 143.93374,485.17263 l 230.29213,-0.6602 -227.097,-38.23418 229.51849,18.87232 -223.0364,-57.35562 227.09117,38.26886 -217.36882,-76.0638 223.02764,57.38967 -210.13508,-94.22394 217.3572,76.09699 L 192.19575,297.55753 402.31644,391.81355 211.12789,263.43193 412.49815,375.16788 232.88588,231.03484 424.05482,359.44565 257.31294,200.59966 436.90321,344.76013 284.2331,172.34568 450.95072,331.21713 313.45237,146.47648 466.09616,318.91424 344.76025,123.17844 482.23039,307.94008 377.93115,102.61943 499.23717,298.37374 412.72608,84.947564 516.99396,290.28414 448.89433,70.29018 535.37284,283.72957 486.17533,58.752883 554.24137,278.75724 524.30045,50.418798 573.4636,275.40299 562.995,45.347973 592.90105,273.69099 601.98019,43.576942 612.41367,273.63356 640.97514,45.118468 631.86086,275.23112 679.69887,49.961441 651.10251,278.47217 717.87238,58.07097 669.99998,283.33334 755.22064,69.388625 688.41712,289.77962 791.47455,83.832861 706.22122,297.76456 826.37289,101.29961 723.28402,307.23063 859.66423,121.66302 739.48256,318.10962 891.1087,144.77637 754.70015,330.32316 920.47974,170.47313 768.82714,343.78323 947.56574,198.56816 781.76174,358.39287 972.17153,228.85903 793.41076,374.04681 994.11983,261.12749 803.69027,390.63226 1013.2525,295.14105 812.5262,408.02972 l 216.9055,-77.37507 -209.57681,95.4592 222.68601,-58.70146 -216.91736,77.34196 226.86196,-39.6049 -222.69491,58.66746 229.40341,-20.22298 -226.868,39.57026 230.292,-0.69536 -229.40649,20.18795 229.52139,18.83728 -230.29215,0.66019 227.09705,38.23419 -229.51854,-18.87232 223.03644,57.35562 -227.0912,-38.26886 z"
       transform="matrix(1.482287,0,0,0.98527282,47.353547,44.079345)" />
  </g>
</svg>
