<?xml version="1.0" encoding="UTF-8" standalone="no"?>
<!-- Created with Inkscape (http://www.inkscape.org/) -->

<svg
   xmlns:osb="http://www.openswatchbook.org/uri/2009/osb"
   xmlns:dc="http://purl.org/dc/elements/1.1/"
   xmlns:cc="http://creativecommons.org/ns#"
   xmlns:rdf="http://www.w3.org/1999/02/22-rdf-syntax-ns#"
   xmlns:svg="http://www.w3.org/2000/svg"
   xmlns="http://www.w3.org/2000/svg"
   xmlns:sodipodi="http://sodipodi.sourceforge.net/DTD/sodipodi-0.dtd"
   xmlns:inkscape="http://www.inkscape.org/namespaces/inkscape"
   width="744.09448819"
   height="1052.3622047"
   id="svg3003"
   version="1.1"
   inkscape:version="0.48.1"
   sodipodi:docname="radialStarAccelerator.svg">
  <defs
     id="defs3005">
    <linearGradient
       id="linearGradient5243"
       osb:paint="solid">
      <stop
         style="stop-color:#000000;stop-opacity:1;"
         offset="0"
         id="stop5245" />
    </linearGradient>
  </defs>
  <sodipodi:namedview
     id="base"
     pagecolor="#ffffff"
     bordercolor="#666666"
     borderopacity="1.0"
     inkscape:pageopacity="0.0"
     inkscape:pageshadow="2"
     inkscape:zoom="0.35"
     inkscape:cx="-99.285714"
     inkscape:cy="520"
     inkscape:document-units="px"
     inkscape:current-layer="layer1"
     showgrid="false"
     inkscape:window-width="1920"
     inkscape:window-height="1017"
     inkscape:window-x="3192"
     inkscape:window-y="-8"
     inkscape:window-maximized="1" />
  <metadata
     id="metadata3008">
    <rdf:RDF>
      <cc:Work
         rdf:about="">
        <dc:format>image/svg+xml</dc:format>
        <dc:type
           rdf:resource="http://purl.org/dc/dcmitype/StillImage" />
        <dc:title></dc:title>
      </cc:Work>
    </rdf:RDF>
  </metadata>
  <g
     inkscape:label="Layer 1"
     inkscape:groupmode="layer"
     id="layer1">
    <path
       d="M 378.57143,508.13699 389.92175,851.18155 380.84077,508.06148 412.57831,849.67743 383.10072,507.83647 435.10043,846.67452 385.3426,507.4612 457.39997,842.18504 387.55773,506.93872 479.388,836.22728 389.73818,506.27056 500.97782,828.82336 391.87382,505.45901 522.08487,820.0038 393.95742,504.50711 542.6253,809.80292 395.98031,503.41944 562.51889,798.26114 397.93383,502.19982 581.68615,785.42346 399.81145,500.85358 600.05192,771.34176 401.60525,499.38531 617.54319,756.07018 403.30797,497.80034 634.09131,739.66898 404.91314,496.10629 649.63197,722.20453 406.41495,494.30928 664.10227,703.74469 407.80618,492.41615 677.44513,684.36195 409.08179,490.43456 689.60923,664.13332 410.23742,488.37287 700.54543,643.13814 411.26801,486.23796 710.21109,621.46031 412.16997,484.03898 718.56791,599.18449 412.93894,481.78509 725.58335,576.39916 413.57205,479.4839 731.22852,553.19356 414.06711,477.1461 735.48245,529.65922 414.42269,474.78008 738.3278,505.88996 414.63589,472.39499 739.753,481.97882 414.70744,469.99999 739.753,458.02116 414.63589,467.60499 738.3278,434.11003 414.42269,465.2199 735.48245,410.34076 414.06711,462.85388 731.22852,386.80642 413.57205,460.51608 725.58335,363.60082 412.93894,458.2149 718.56791,340.81549 412.16997,455.961 710.21109,318.53967 411.26801,453.76202 700.54543,296.86184 410.23742,451.62711 689.60923,275.86666 409.08179,449.56543 677.44513,255.63803 407.80618,447.58383 664.10227,236.25529 406.41495,445.69071 649.63197,217.79546 404.91314,443.89369 634.09131,200.331 403.30797,442.19965 617.54319,183.9298 401.60525,440.61467 600.05192,168.65823 399.81145,439.1464 581.68615,154.57652 397.93383,437.80016 562.51889,141.73885 395.98031,436.58054 542.6253,130.19707 393.95742,435.49287 522.08487,119.99619 391.87382,434.54097 500.97782,111.17662 389.73818,433.72942 479.388,103.77271 387.55773,433.06126 457.39997,97.814946 385.3426,432.53878 435.10043,93.325458 383.10072,432.16351 412.57831,90.322551 380.84077,431.93851 389.92175,88.818428 378.57143,431.86299 367.22111,88.818428 376.30209,431.93851 344.56456,90.322551 374.04214,432.16351 322.04243,93.325458 371.80027,432.53878 299.7429,97.814946 369.58513,433.06126 277.75486,103.77271 367.40468,433.72942 256.16504,111.17662 365.26904,434.54097 235.058,119.99619 363.18544,435.49287 214.51757,130.19707 361.16255,436.58054 194.62397,141.73885 359.20904,437.80016 175.45671,154.57652 357.33141,439.1464 157.09094,168.65823 355.53762,440.61467 139.59967,183.9298 353.83489,442.19965 123.05155,200.331 352.22973,443.89369 107.51089,217.79546 350.72791,445.69071 93.040591,236.25529 349.33668,447.58383 79.697732,255.63803 348.06108,449.56543 67.533628,275.86666 346.90545,451.62711 56.597427,296.86184 345.87485,453.76202 46.931767,318.53967 344.97289,455.961 38.574954,340.81549 344.20392,458.2149 31.559509,363.60082 343.57082,460.51608 25.914342,386.80642 343.07575,462.85388 21.660411,410.34076 342.72017,465.2199 18.81506,434.11003 342.50697,467.60499 17.38986,458.02116 342.43542,469.99999 17.38986,481.97882 342.50697,472.39499 18.81506,505.88996 342.72017,474.78008 21.660411,529.65922 343.07575,477.1461 25.914342,553.19356 343.57082,479.4839 31.559509,576.39916 344.20392,481.78509 38.574954,599.18449 344.97289,484.03898 46.931767,621.46031 345.87485,486.23796 56.597427,643.13814 346.90545,488.37287 67.533628,664.13332 348.06108,490.43456 79.697732,684.36195 349.33668,492.41615 93.040591,703.74469 350.72791,494.30928 107.51089,722.20453 352.22973,496.10629 123.05155,739.66898 353.83489,497.80034 139.59967,756.07018 355.53762,499.38531 157.09094,771.34176 357.33141,500.85358 175.45671,785.42346 359.20904,502.19982 194.62397,798.26114 361.16255,503.41944 214.51757,809.80292 363.18544,504.50711 235.058,820.0038 365.26904,505.45901 256.16504,828.82336 367.40468,506.27056 277.75486,836.22728 369.58513,506.93872 299.7429,842.18504 371.80027,507.4612 322.04243,846.67452 374.04214,507.83647 344.56456,849.67743 376.30209,508.06148 367.22111,851.18155 378.57143,508.13699 z"
       id="path3028"
       inkscape:connector-curvature="0" />
  </g>
</svg>
