<?xml version="1.0" encoding="UTF-8" standalone="no"?>
<!-- Created with Inkscape (http://www.inkscape.org/) -->

<svg
   xmlns:osb="http://www.openswatchbook.org/uri/2009/osb"
   xmlns:dc="http://purl.org/dc/elements/1.1/"
   xmlns:cc="http://creativecommons.org/ns#"
   xmlns:rdf="http://www.w3.org/1999/02/22-rdf-syntax-ns#"
   xmlns:svg="http://www.w3.org/2000/svg"
   xmlns="http://www.w3.org/2000/svg"
   xmlns:sodipodi="http://sodipodi.sourceforge.net/DTD/sodipodi-0.dtd"
   xmlns:inkscape="http://www.inkscape.org/namespaces/inkscape"
   width="744.09448819"
   height="1052.3622047"
   id="svg3003"
   version="1.1"
   inkscape:version="0.48.1 "
   sodipodi:docname="spiralAccelerator.svg">
  <defs
     id="defs3005">
    <linearGradient
       id="linearGradient5243"
       osb:paint="solid">
      <stop
         style="stop-color:#000000;stop-opacity:1;"
         offset="0"
         id="stop5245" />
    </linearGradient>
  </defs>
  <sodipodi:namedview
     id="base"
     pagecolor="#ffffff"
     bordercolor="#666666"
     borderopacity="1.0"
     inkscape:pageopacity="0.0"
     inkscape:pageshadow="2"
     inkscape:zoom="0.35"
     inkscape:cx="-99.285714"
     inkscape:cy="520"
     inkscape:document-units="px"
     inkscape:current-layer="layer1"
     showgrid="false"
     inkscape:window-width="2620"
     inkscape:window-height="2030"
     inkscape:window-x="-8"
     inkscape:window-y="-8"
     inkscape:window-maximized="1" />
  <metadata
     id="metadata3008">
    <rdf:RDF>
      <cc:Work
         rdf:about="">
        <dc:format>image/svg+xml</dc:format>
        <dc:type
           rdf:resource="http://purl.org/dc/dcmitype/StillImage" />
        <dc:title></dc:title>
      </cc:Work>
    </rdf:RDF>
  </metadata>
  <g
     inkscape:label="Layer 1"
     inkscape:groupmode="layer"
     id="layer1">
<path  d="
M 240.000 290.000
L 255.705 739.753
L 243.140 289.901
L 287.054 737.781
L 246.267 289.606
L 318.217 733.844
L 249.369 289.114
L 349.072 727.958
L 252.434 288.429
L 379.496 720.147
L 255.451 287.553
L 409.369 710.440
L 258.406 286.489
L 438.574 698.877
L 261.289 285.241
L 466.995 685.503
L 264.088 283.815
L 494.521 670.371
L 266.791 282.216
L 521.042 653.540
L 269.389 280.451
L 546.454 635.078
L 271.871 278.526
L 570.656 615.056
L 274.227 276.448
L 593.553 593.553
L 276.448 274.227
L 615.056 570.656
L 278.526 271.871
L 635.078 546.454
L 280.451 269.389
L 653.540 521.042
L 282.216 266.791
L 670.371 494.521
L 283.815 264.088
L 685.503 466.995
L 285.241 261.289
L 698.877 438.574
L 286.489 258.406
L 710.440 409.369
L 287.553 255.451
L 720.147 379.496
L 288.429 252.434
L 727.958 349.072
L 289.114 249.369
L 733.844 318.217
L 289.606 246.267
L 737.781 287.054
L 289.901 243.140
L 739.753 255.705
L 290.000 240.000
L 739.753 224.295
L 289.901 236.860
L 737.781 192.946
L 289.606 233.733
L 733.844 161.783
L 289.114 230.631
L 727.958 130.928
L 288.429 227.566
L 720.147 100.504
L 287.553 224.549
L 710.440 70.631
L 286.489 221.594
L 698.877 41.426
L 285.241 218.711
L 685.503 13.005
L 283.815 215.912
L 670.371 -14.521
L 282.216 213.209
L 653.540 -41.042
L 280.451 210.611
L 635.078 -66.454
L 278.526 208.129
L 615.056 -90.656
L 276.448 205.773
L 593.553 -113.553
L 274.227 203.552
L 570.656 -135.056
L 271.871 201.474
L 546.454 -155.078
L 269.389 199.549
L 521.042 -173.540
L 266.791 197.784
L 494.521 -190.371
L 264.088 196.185
L 466.995 -205.503
L 261.289 194.759
L 438.574 -218.877
L 258.406 193.511
L 409.369 -230.440
L 255.451 192.447
L 379.496 -240.147
L 252.434 191.571
L 349.072 -247.958
L 249.369 190.886
L 318.217 -253.844
L 246.267 190.394
L 287.054 -257.781
L 243.140 190.099
L 255.705 -259.753
L 240.000 190.000
L 224.295 -259.753
L 236.860 190.099
L 192.946 -257.781
L 233.733 190.394
L 161.783 -253.844
L 230.631 190.886
L 130.928 -247.958
L 227.566 191.571
L 100.504 -240.147
L 224.549 192.447
L 70.631 -230.440
L 221.594 193.511
L 41.426 -218.877
L 218.711 194.759
L 13.005 -205.503
L 215.912 196.185
L -14.521 -190.371
L 213.209 197.784
L -41.042 -173.540
L 210.611 199.549
L -66.454 -155.078
L 208.129 201.474
L -90.656 -135.056
L 205.773 203.552
L -113.553 -113.553
L 203.552 205.773
L -135.056 -90.656
L 201.474 208.129
L -155.078 -66.454
L 199.549 210.611
L -173.540 -41.042
L 197.784 213.209
L -190.371 -14.521
L 196.185 215.912
L -205.503 13.005
L 194.759 218.711
L -218.877 41.426
L 193.511 221.594
L -230.440 70.631
L 192.447 224.549
L -240.147 100.504
L 191.571 227.566
L -247.958 130.928
L 190.886 230.631
L -253.844 161.783
L 190.394 233.733
L -257.781 192.946
L 190.099 236.860
L -259.753 224.295
L 190.000 240.000
L -259.753 255.705
L 190.099 243.140
L -257.781 287.054
L 190.394 246.267
L -253.844 318.217
L 190.886 249.369
L -247.958 349.072
L 191.571 252.434
L -240.147 379.496
L 192.447 255.451
L -230.440 409.369
L 193.511 258.406
L -218.877 438.574
L 194.759 261.289
L -205.503 466.995
L 196.185 264.088
L -190.371 494.521
L 197.784 266.791
L -173.540 521.042
L 199.549 269.389
L -155.078 546.454
L 201.474 271.871
L -135.056 570.656
L 203.552 274.227
L -113.553 593.553
L 205.773 276.448
L -90.656 615.056
L 208.129 278.526
L -66.454 635.078
L 210.611 280.451
L -41.042 653.540
L 213.209 282.216
L -14.521 670.371
L 215.912 283.815
L 13.005 685.503
L 218.711 285.241
L 41.426 698.877
L 221.594 286.489
L 70.631 710.440
L 224.549 287.553
L 100.504 720.147
L 227.566 288.429
L 130.928 727.958
L 230.631 289.114
L 161.783 733.844
L 233.733 289.606
L 192.946 737.781
L 236.860 289.901
L 224.295 739.753
L 240.000 290.000
z"/>
  </g>
</svg>
