<?xml version="1.0" encoding="UTF-8" standalone="no"?>
<!-- Created with Inkscape (http://www.inkscape.org/) -->

<svg
   xmlns:dc="http://purl.org/dc/elements/1.1/"
   xmlns:cc="http://creativecommons.org/ns#"
   xmlns:rdf="http://www.w3.org/1999/02/22-rdf-syntax-ns#"
   xmlns:svg="http://www.w3.org/2000/svg"
   xmlns="http://www.w3.org/2000/svg"
   xmlns:sodipodi="http://sodipodi.sourceforge.net/DTD/sodipodi-0.dtd"
   xmlns:inkscape="http://www.inkscape.org/namespaces/inkscape"
   width="3543.3071"
   height="5010.2363"
   id="svg2"
   version="1.1"
   inkscape:version="0.48.1 "
   sodipodi:docname="spiralAccelerator2.svg">
  <defs
     id="defs4" />
  <sodipodi:namedview
     id="base"
     pagecolor="#ffffff"
     bordercolor="#666666"
     borderopacity="1.0"
     inkscape:pageopacity="0.0"
     inkscape:pageshadow="2"
     inkscape:zoom="0.35"
     inkscape:cx="859.94555"
     inkscape:cy="1514.3227"
     inkscape:document-units="px"
     inkscape:current-layer="layer1"
     showgrid="false"
     inkscape:window-width="1920"
     inkscape:window-height="1030"
     inkscape:window-x="-8"
     inkscape:window-y="-8"
     inkscape:window-maximized="1" />
  <metadata
     id="metadata7">
    <rdf:RDF>
      <cc:Work
         rdf:about="">
        <dc:format>image/svg+xml</dc:format>
        <dc:type
           rdf:resource="http://purl.org/dc/dcmitype/StillImage" />
      </cc:Work>
    </rdf:RDF>
  </metadata>
  <g
     inkscape:label="Layer 1"
     inkscape:groupmode="layer"
     id="layer1"
     transform="translate(0,3957.874)">
    <path
       sodipodi:type="spiral"
       style="fill:none;stroke:#000000;stroke-width:1px;stroke-linecap:butt;stroke-linejoin:miter;stroke-opacity:1"
       id="path2987-1"
       sodipodi:cx="2034.2858"
       sodipodi:cy="3704.522"
       sodipodi:expansion="1"
       sodipodi:revolution="35.700001"
       sodipodi:radius="471.49783"
       sodipodi:argument="-221.75949"
       sodipodi:t0="0"
       d="m 2034.2858,3704.522 c -0.5437,-1.9108 2.3074,-1.6756 3.1757,-0.9036 2.3532,2.0918 0.8691,5.7718 -1.3685,7.2551 -4.0026,2.6533 -9.2498,0.3027 -11.3345,-3.6407 -3.0594,-5.7871 0.2546,-12.7843 5.9128,-15.4138 7.5416,-3.5049 16.3401,0.8064 19.4932,8.1849 3.9679,9.2851 -1.3551,19.9063 -10.4571,23.5726 -11.0237,4.4403 -23.4785,-1.902 -27.6519,-12.7292 -4.9182,-12.7596 2.4476,-27.0545 15.0014,-31.7313 14.4938,-5.3997 30.6328,2.9924 35.8106,17.2735 5.8834,16.227 -3.5367,34.2129 -19.5456,39.89 -17.9596,6.3688 -37.7944,-4.0807 -43.9694,-21.8178 -6.8555,-19.6916 4.6243,-41.3767 24.0899,-48.0488 21.4232,-7.343 44.9598,5.1677 52.1281,26.3621 7.8313,23.1546 -5.7108,48.5435 -28.6342,56.2075 -24.8857,8.3201 -52.1275,-6.254 -60.2868,-30.9063 -8.8094,-26.6167 6.7969,-55.7121 33.1785,-64.3663 28.3475,-9.299 59.2969,7.3398 68.4456,35.4507 9.789,30.0782 -7.8826,62.8819 -37.7228,72.5249 -31.8089,10.2792 -66.4673,-8.4253 -76.6043,-39.9949 -10.7696,-33.5395 8.968,-70.0527 42.267,-80.6837 35.27,-11.2602 73.6384,9.5106 84.7631,44.5392 11.7509,37.0004 -10.0532,77.2241 -46.8114,88.8424 -38.7308,12.2418 -80.81,-10.5957 -92.9217,-49.0834 -12.7329,-40.4612 11.1382,-84.396 51.3556,-97.0012 42.1914,-13.2239 87.982,11.6808 101.0805,53.6278 13.7151,43.9217 -12.2233,91.5682 -55.8999,105.1598 -45.652,14.2064 -95.1545,-12.7657 -109.2393,-58.172 -14.6977,-47.3822 13.3082,-98.7407 60.4442,-113.3186 49.1125,-15.1891 102.3271,13.8506 117.398,62.7163 15.6806,50.8427 -14.393,105.9135 -64.9885,121.4773 -52.5728,16.1721 -109.4999,-14.9353 -125.5567,-67.2605 -16.6636,-54.303 15.4778,-113.0865 69.5328,-129.6361 56.0331,-17.1552 116.673,16.0201 133.7154,71.8049 17.6469,57.7632 -16.5625,120.2595 -74.077,137.7948 -59.4934,18.1385 -123.8462,-17.1049 -141.8742,-76.3492 -18.6302,-61.2235 17.6472,-127.4328 78.6213,-145.9535 62.9536,-19.122 131.0195,18.1895 150.0329,80.8934 19.6137,64.6837 -18.7318,134.6062 -83.1656,154.1123 -66.4137,20.1055 -138.1928,-19.2742 -158.1916,-85.4377 -20.5973,-68.1439 19.8165,-141.7796 87.7099,-162.271 69.8739,-21.0892 145.3663,20.3587 166.3503,89.982 21.581,71.6039 -20.901,148.9531 -92.2541,170.4297 -73.334,22.0728 -152.5399,-21.4434 -174.5091,-94.5263 -22.5647,-75.0641 21.9857,-156.1267 96.7984,-178.5884 76.7941,-23.0567 159.7135,22.5279 182.6678,99.0705 23.5486,78.5242 -23.0702,163.3004 -101.3427,186.7472 -80.2541,24.0404 -166.8872,-23.6125 -190.8265,-103.6149 -24.5324,-81.9841 24.1548,-170.474 105.887,-194.9059 83.7142,-25.0243 174.0609,24.6971 198.9852,108.1592 25.5163,85.4442 -25.2393,177.6478 -110.4312,203.0646 -87.1743,26.0083 -181.2347,-25.7816 -207.144,-112.7034 -26.5003,-88.9043 26.3239,-184.8216 114.9755,-211.2234 90.6343,-26.9922 188.4085,26.8662 215.3028,117.2477 27.4842,92.3643 -27.4085,191.9954 -119.5199,219.3821 -94.0943,27.9763 -195.5823,-27.9507 -223.4614,-121.792 -28.4683,-95.8243 28.4929,-199.1692 124.0641,-227.5408 97.5543,-28.9603 202.7562,29.0352 231.6202,126.3363 29.4523,99.2843 -29.5775,206.3431 -128.6084,235.6995 -101.0143,29.9444 -209.9301,-30.1197 -239.7789,-130.8805 -30.4364,-102.7443 30.6619,-213.517 133.1526,-243.8583 104.4743,-30.9284 217.104,31.2042 247.9377,135.4248 31.4205,106.2043 -31.7465,220.691 -137.697,252.017 -107.9342,31.9126 -224.2779,-32.2887 -256.0963,-139.9691 -32.4047,-109.6642 32.8309,-227.8649 142.2412,-260.1757 111.3942,-32.8967 231.4519,33.3732 264.2551,144.5134 33.3888,113.1242 -33.9155,235.0389 -146.7855,268.3344 -114.8542,33.8809 -238.6259,-34.4576 -272.4139,-149.0576 -34.3729,-116.5842 35,-242.2129 151.3298,-276.4932 118.3142,-34.865 245.7999,35.5422 280.5726,153.6019 35.3571,120.0442 -36.0844,249.3869 -155.8741,284.652 -121.7741,35.8492 -252.9739,-36.6267 -288.7313,-158.1463 -36.3413,-123.5041 37.1689,-256.5609 160.4184,-292.8106 125.2341,-36.8334 260.1479,37.7111 296.89,162.6905 37.3255,126.964 -38.2534,263.7349 -164.9626,300.9694 -128.694,37.8176 -267.322,-38.7956 -305.0488,-167.2348 -38.3097,-130.424 39.3379,-270.909 169.5069,-309.1281 132.154,-38.8019 274.4961,39.88 313.2075,171.779 39.294,133.884 -40.4223,278.0831 -174.0512,317.2869 -135.6139,39.7861 -281.6701,-40.9646 -321.3662,-176.3234 -40.2782,-137.3438 41.5068,-285.2571 178.5955,-325.4455 139.0738,-40.7704 288.8442,42.049 329.5249,180.8676 41.2625,140.8038 -42.5912,292.4312 -183.1397,333.6043 -142.5338,41.7546 -296.0183,-43.1335 -337.6837,-185.4119 -42.2468,-144.2637 43.6757,-299.6053 187.684,-341.763 145.9937,-42.739 303.1924,44.2179 345.8424,189.9561 43.2311,147.7237 -44.7601,306.7794 -192.2283,349.9218 -149.4536,43.7232 -310.3664,-45.3024 -354.0011,-194.5005 -44.2153,-151.1836 45.8446,-313.9535 196.7726,-358.0805 152.9135,-44.7074 317.5406,46.3869 362.1598,199.0448 45.1997,154.6435 -46.929,321.1276 -201.3168,366.2392 -156.3735,45.6918 -324.7147,-47.4713 -370.3186,-203.589 -46.1839,-158.1034 48.0135,-328.3018 205.8611,-374.398 159.8334,-46.676 331.8889,48.5558 378.4774,208.1333 47.1682,161.5634 -49.098,335.4759 -210.4055,382.5567 -163.2933,47.6604 -339.0629,-49.6401 -386.636,-212.6776 -48.1526,-165.0232 50.1824,-342.65 214.9497,-390.7154 166.7532,-48.6447 346.2371,50.7246 394.7948,217.2219 49.1368,168.4832 -51.2669,349.8241 -219.494,398.8741 -170.2132,49.629 -353.4113,-51.809 -402.9535,-221.7661 -50.1212,-171.9431 52.3512,-356.9983 224.0382,-407.0329 173.6731,-50.6133 360.5854,52.8935 411.1123,226.3104 51.1055,175.403 -53.4357,364.1725 -228.5826,415.1916 -177.1329,51.5977 -367.7595,-53.9779 -419.2709,-230.8547 -52.0899,-178.8629 54.5201,-371.3466 233.1268,-423.3503 180.5929,-52.582 374.9337,55.0624 427.4297,235.399 53.0742,182.3228 -55.6046,378.5208 -237.6711,431.509 -184.0528,53.5664 -382.1079,-56.1468 -435.5885,-239.9432 -54.0585,-185.7827 56.6891,-385.695 242.2154,-439.6678 187.5127,-54.5507 389.2821,57.2313 443.7472,244.4875 55.0429,189.2427 -57.7735,392.8691 -246.7597,447.8266 -190.9726,55.535 -396.4562,-58.3157 -451.9059,-249.0319 -56.0272,-192.7025 58.8579,-400.0432 251.304,-455.9852 194.4325,-56.5194 403.6304,59.4001 460.0646,253.5761 57.0116,196.1624 -59.9423,407.2174 -255.8482,464.144 -197.8924,57.5037 -410.8046,-60.4846 -468.2234,-258.1204 -57.9959,-199.6224 61.0268,-414.3917 260.3925,-472.3027 201.3523,-58.4881 417.9788,61.569 476.3821,262.6646 58.9803,203.0823 -62.1112,421.5659 -264.9368,480.4615 -204.8122,59.4725 -425.1529,-62.6535 -484.5408,-267.209 -59.9646,-206.5421 63.1957,-428.74 269.4811,-488.6201 208.2721,-60.4569 432.3271,63.7378 492.6995,271.7532 60.9491,210.002 -64.2801,435.9142 -274.0253,496.7789 -211.732,61.4412 -439.5013,-64.8223 -500.8583,-276.2975 -61.9334,-213.462 65.3645,-443.0884 278.5696,-504.9376 215.1919,-62.4256 446.6755,65.9067 509.017,280.8417 62.9178,216.9219 -66.4489,450.2626 -283.1139,513.0964 -218.6518,63.41 -453.8497,-66.9912 -517.1757,-285.3861 -63.9022,-220.3817 67.5334,-457.4367 287.6582,-521.2551 222.1117,-64.3943 461.0239,68.0756 525.3344,289.9304 64.8866,223.8416 -68.6178,464.611 -292.2024,529.4138 -225.5716,65.3787 -468.1981,-69.16 -533.4932,-294.4746 -65.8709,-227.3015 69.7022,-471.7852 296.7467,-537.5726 229.0315,-66.3631 475.3723,70.2445 541.652,299.0189 66.8552,230.7615 -70.7867,478.9594 -301.2911,545.7313 -232.4914,67.3475 -482.5465,-71.3289 -549.8106,-303.5632 -67.8397,-234.2213 71.8711,-486.1336 305.8353,-553.89 235.9513,-68.3318 489.7207,72.4133 557.9694,308.1075 68.824,237.6812 -72.9555,493.3078 -310.3796,562.0487 -239.4112,69.3163 -496.8949,-73.4977 -566.1281,-312.6517 -69.8085,-241.1411 74.0399,-500.482 314.9239,-570.2075 242.871,-70.3006 504.0691,74.5822 574.2868,317.196 70.7928,244.601 -75.1244,507.6563 -319.4682,578.3662 -193.5303,56.0052 -406.7364,-21.4304 -519.7417,-188.0999"
       transform="translate(-860.44137,-3846.9066)" />
    <path
       sodipodi:type="spiral"
       style="fill:none;stroke:#000000;stroke-width:1px;stroke-linecap:butt;stroke-linejoin:miter;stroke-opacity:1"
       id="path2987-9"
       sodipodi:cx="2034.2858"
       sodipodi:cy="3704.522"
       sodipodi:expansion="1"
       sodipodi:revolution="35.700001"
       sodipodi:radius="471.49783"
       sodipodi:argument="-221.75949"
       sodipodi:t0="0"
       d="m 2034.2858,3704.522 c -0.5437,-1.9108 2.3074,-1.6756 3.1757,-0.9036 2.3532,2.0918 0.8691,5.7718 -1.3685,7.2551 -4.0026,2.6533 -9.2498,0.3027 -11.3345,-3.6407 -3.0594,-5.7871 0.2546,-12.7843 5.9128,-15.4138 7.5416,-3.5049 16.3401,0.8064 19.4932,8.1849 3.9679,9.2851 -1.3551,19.9063 -10.4571,23.5726 -11.0237,4.4403 -23.4785,-1.902 -27.6519,-12.7292 -4.9182,-12.7596 2.4476,-27.0545 15.0014,-31.7313 14.4938,-5.3997 30.6328,2.9924 35.8106,17.2735 5.8834,16.227 -3.5367,34.2129 -19.5456,39.89 -17.9596,6.3688 -37.7944,-4.0807 -43.9694,-21.8178 -6.8555,-19.6916 4.6243,-41.3767 24.0899,-48.0488 21.4232,-7.343 44.9598,5.1677 52.1281,26.3621 7.8313,23.1546 -5.7108,48.5435 -28.6342,56.2075 -24.8857,8.3201 -52.1275,-6.254 -60.2868,-30.9063 -8.8094,-26.6167 6.7969,-55.7121 33.1785,-64.3663 28.3475,-9.299 59.2969,7.3398 68.4456,35.4507 9.789,30.0782 -7.8826,62.8819 -37.7228,72.5249 -31.8089,10.2792 -66.4673,-8.4253 -76.6043,-39.9949 -10.7696,-33.5395 8.968,-70.0527 42.267,-80.6837 35.27,-11.2602 73.6384,9.5106 84.7631,44.5392 11.7509,37.0004 -10.0532,77.2241 -46.8114,88.8424 -38.7308,12.2418 -80.81,-10.5957 -92.9217,-49.0834 -12.7329,-40.4612 11.1382,-84.396 51.3556,-97.0012 42.1914,-13.2239 87.982,11.6808 101.0805,53.6278 13.7151,43.9217 -12.2233,91.5682 -55.8999,105.1598 -45.652,14.2064 -95.1545,-12.7657 -109.2393,-58.172 -14.6977,-47.3822 13.3082,-98.7407 60.4442,-113.3186 49.1125,-15.1891 102.3271,13.8506 117.398,62.7163 15.6806,50.8427 -14.393,105.9135 -64.9885,121.4773 -52.5728,16.1721 -109.4999,-14.9353 -125.5567,-67.2605 -16.6636,-54.303 15.4778,-113.0865 69.5328,-129.6361 56.0331,-17.1552 116.673,16.0201 133.7154,71.8049 17.6469,57.7632 -16.5625,120.2595 -74.077,137.7948 -59.4934,18.1385 -123.8462,-17.1049 -141.8742,-76.3492 -18.6302,-61.2235 17.6472,-127.4328 78.6213,-145.9535 62.9536,-19.122 131.0195,18.1895 150.0329,80.8934 19.6137,64.6837 -18.7318,134.6062 -83.1656,154.1123 -66.4137,20.1055 -138.1928,-19.2742 -158.1916,-85.4377 -20.5973,-68.1439 19.8165,-141.7796 87.7099,-162.271 69.8739,-21.0892 145.3663,20.3587 166.3503,89.982 21.581,71.6039 -20.901,148.9531 -92.2541,170.4297 -73.334,22.0728 -152.5399,-21.4434 -174.5091,-94.5263 -22.5647,-75.0641 21.9857,-156.1267 96.7984,-178.5884 76.7941,-23.0567 159.7135,22.5279 182.6678,99.0705 23.5486,78.5242 -23.0702,163.3004 -101.3427,186.7472 -80.2541,24.0404 -166.8872,-23.6125 -190.8265,-103.6149 -24.5324,-81.9841 24.1548,-170.474 105.887,-194.9059 83.7142,-25.0243 174.0609,24.6971 198.9852,108.1592 25.5163,85.4442 -25.2393,177.6478 -110.4312,203.0646 -87.1743,26.0083 -181.2347,-25.7816 -207.144,-112.7034 -26.5003,-88.9043 26.3239,-184.8216 114.9755,-211.2234 90.6343,-26.9922 188.4085,26.8662 215.3028,117.2477 27.4842,92.3643 -27.4085,191.9954 -119.5199,219.3821 -94.0943,27.9763 -195.5823,-27.9507 -223.4614,-121.792 -28.4683,-95.8243 28.4929,-199.1692 124.0641,-227.5408 97.5543,-28.9603 202.7562,29.0352 231.6202,126.3363 29.4523,99.2843 -29.5775,206.3431 -128.6084,235.6995 -101.0143,29.9444 -209.9301,-30.1197 -239.7789,-130.8805 -30.4364,-102.7443 30.6619,-213.517 133.1526,-243.8583 104.4743,-30.9284 217.104,31.2042 247.9377,135.4248 31.4205,106.2043 -31.7465,220.691 -137.697,252.017 -107.9342,31.9126 -224.2779,-32.2887 -256.0963,-139.9691 -32.4047,-109.6642 32.8309,-227.8649 142.2412,-260.1757 111.3942,-32.8967 231.4519,33.3732 264.2551,144.5134 33.3888,113.1242 -33.9155,235.0389 -146.7855,268.3344 -114.8542,33.8809 -238.6259,-34.4576 -272.4139,-149.0576 -34.3729,-116.5842 35,-242.2129 151.3298,-276.4932 118.3142,-34.865 245.7999,35.5422 280.5726,153.6019 35.3571,120.0442 -36.0844,249.3869 -155.8741,284.652 -121.7741,35.8492 -252.9739,-36.6267 -288.7313,-158.1463 -36.3413,-123.5041 37.1689,-256.5609 160.4184,-292.8106 125.2341,-36.8334 260.1479,37.7111 296.89,162.6905 37.3255,126.964 -38.2534,263.7349 -164.9626,300.9694 -128.694,37.8176 -267.322,-38.7956 -305.0488,-167.2348 -38.3097,-130.424 39.3379,-270.909 169.5069,-309.1281 132.154,-38.8019 274.4961,39.88 313.2075,171.779 39.294,133.884 -40.4223,278.0831 -174.0512,317.2869 -135.6139,39.7861 -281.6701,-40.9646 -321.3662,-176.3234 -40.2782,-137.3438 41.5068,-285.2571 178.5955,-325.4455 139.0738,-40.7704 288.8442,42.049 329.5249,180.8676 41.2625,140.8038 -42.5912,292.4312 -183.1397,333.6043 -142.5338,41.7546 -296.0183,-43.1335 -337.6837,-185.4119 -42.2468,-144.2637 43.6757,-299.6053 187.684,-341.763 145.9937,-42.739 303.1924,44.2179 345.8424,189.9561 43.2311,147.7237 -44.7601,306.7794 -192.2283,349.9218 -149.4536,43.7232 -310.3664,-45.3024 -354.0011,-194.5005 -44.2153,-151.1836 45.8446,-313.9535 196.7726,-358.0805 152.9135,-44.7074 317.5406,46.3869 362.1598,199.0448 45.1997,154.6435 -46.929,321.1276 -201.3168,366.2392 -156.3735,45.6918 -324.7147,-47.4713 -370.3186,-203.589 -46.1839,-158.1034 48.0135,-328.3018 205.8611,-374.398 159.8334,-46.676 331.8889,48.5558 378.4774,208.1333 47.1682,161.5634 -49.098,335.4759 -210.4055,382.5567 -163.2933,47.6604 -339.0629,-49.6401 -386.636,-212.6776 -48.1526,-165.0232 50.1824,-342.65 214.9497,-390.7154 166.7532,-48.6447 346.2371,50.7246 394.7948,217.2219 49.1368,168.4832 -51.2669,349.8241 -219.494,398.8741 -170.2132,49.629 -353.4113,-51.809 -402.9535,-221.7661 -50.1212,-171.9431 52.3512,-356.9983 224.0382,-407.0329 173.6731,-50.6133 360.5854,52.8935 411.1123,226.3104 51.1055,175.403 -53.4357,364.1725 -228.5826,415.1916 -177.1329,51.5977 -367.7595,-53.9779 -419.2709,-230.8547 -52.0899,-178.8629 54.5201,-371.3466 233.1268,-423.3503 180.5929,-52.582 374.9337,55.0624 427.4297,235.399 53.0742,182.3228 -55.6046,378.5208 -237.6711,431.509 -184.0528,53.5664 -382.1079,-56.1468 -435.5885,-239.9432 -54.0585,-185.7827 56.6891,-385.695 242.2154,-439.6678 187.5127,-54.5507 389.2821,57.2313 443.7472,244.4875 55.0429,189.2427 -57.7735,392.8691 -246.7597,447.8266 -190.9726,55.535 -396.4562,-58.3157 -451.9059,-249.0319 -56.0272,-192.7025 58.8579,-400.0432 251.304,-455.9852 194.4325,-56.5194 403.6304,59.4001 460.0646,253.5761 57.0116,196.1624 -59.9423,407.2174 -255.8482,464.144 -197.8924,57.5037 -410.8046,-60.4846 -468.2234,-258.1204 -57.9959,-199.6224 61.0268,-414.3917 260.3925,-472.3027 201.3523,-58.4881 417.9788,61.569 476.3821,262.6646 58.9803,203.0823 -62.1112,421.5659 -264.9368,480.4615 -204.8122,59.4725 -425.1529,-62.6535 -484.5408,-267.209 -59.9646,-206.5421 63.1957,-428.74 269.4811,-488.6201 208.2721,-60.4569 432.3271,63.7378 492.6995,271.7532 60.9491,210.002 -64.2801,435.9142 -274.0253,496.7789 -211.732,61.4412 -439.5013,-64.8223 -500.8583,-276.2975 -61.9334,-213.462 65.3645,-443.0884 278.5696,-504.9376 215.1919,-62.4256 446.6755,65.9067 509.017,280.8417 62.9178,216.9219 -66.4489,450.2626 -283.1139,513.0964 -218.6518,63.41 -453.8497,-66.9912 -517.1757,-285.3861 -63.9022,-220.3817 67.5334,-457.4367 287.6582,-521.2551 222.1117,-64.3943 461.0239,68.0756 525.3344,289.9304 64.8866,223.8416 -68.6178,464.611 -292.2024,529.4138 -225.5716,65.3787 -468.1981,-69.16 -533.4932,-294.4746 -65.8709,-227.3015 69.7022,-471.7852 296.7467,-537.5726 229.0315,-66.3631 475.3723,70.2445 541.652,299.0189 66.8552,230.7615 -70.7867,478.9594 -301.2911,545.7313 -232.4914,67.3475 -482.5465,-71.3289 -549.8106,-303.5632 -67.8397,-234.2213 71.8711,-486.1336 305.8353,-553.89 235.9513,-68.3318 489.7207,72.4133 557.9694,308.1075 68.824,237.6812 -72.9555,493.3078 -310.3796,562.0487 -239.4112,69.3163 -496.8949,-73.4977 -566.1281,-312.6517 -69.8085,-241.1411 74.0399,-500.482 314.9239,-570.2075 242.871,-70.3006 504.0691,74.5822 574.2868,317.196 70.7928,244.601 -75.1244,507.6563 -319.4682,578.3662 -193.5303,56.0052 -406.7364,-21.4304 -519.7417,-188.0999"
       transform="translate(-74.727071,-4366.9066)" />
    <path
       sodipodi:type="spiral"
       style="fill:none;stroke:#000000;stroke-width:1px;stroke-linecap:butt;stroke-linejoin:miter;stroke-opacity:1"
       id="path2987"
       sodipodi:cx="2034.2858"
       sodipodi:cy="3704.522"
       sodipodi:expansion="1"
       sodipodi:revolution="35.700001"
       sodipodi:radius="471.49783"
       sodipodi:argument="-221.75949"
       sodipodi:t0="0"
       d="m 2034.2858,3704.522 c -0.5437,-1.9108 2.3074,-1.6756 3.1757,-0.9036 2.3532,2.0918 0.8691,5.7718 -1.3685,7.2551 -4.0026,2.6533 -9.2498,0.3027 -11.3345,-3.6407 -3.0594,-5.7871 0.2546,-12.7843 5.9128,-15.4138 7.5416,-3.5049 16.3401,0.8064 19.4932,8.1849 3.9679,9.2851 -1.3551,19.9063 -10.4571,23.5726 -11.0237,4.4403 -23.4785,-1.902 -27.6519,-12.7292 -4.9182,-12.7596 2.4476,-27.0545 15.0014,-31.7313 14.4938,-5.3997 30.6328,2.9924 35.8106,17.2735 5.8834,16.227 -3.5367,34.2129 -19.5456,39.89 -17.9596,6.3688 -37.7944,-4.0807 -43.9694,-21.8178 -6.8555,-19.6916 4.6243,-41.3767 24.0899,-48.0488 21.4232,-7.343 44.9598,5.1677 52.1281,26.3621 7.8313,23.1546 -5.7108,48.5435 -28.6342,56.2075 -24.8857,8.3201 -52.1275,-6.254 -60.2868,-30.9063 -8.8094,-26.6167 6.7969,-55.7121 33.1785,-64.3663 28.3475,-9.299 59.2969,7.3398 68.4456,35.4507 9.789,30.0782 -7.8826,62.8819 -37.7228,72.5249 -31.8089,10.2792 -66.4673,-8.4253 -76.6043,-39.9949 -10.7696,-33.5395 8.968,-70.0527 42.267,-80.6837 35.27,-11.2602 73.6384,9.5106 84.7631,44.5392 11.7509,37.0004 -10.0532,77.2241 -46.8114,88.8424 -38.7308,12.2418 -80.81,-10.5957 -92.9217,-49.0834 -12.7329,-40.4612 11.1382,-84.396 51.3556,-97.0012 42.1914,-13.2239 87.982,11.6808 101.0805,53.6278 13.7151,43.9217 -12.2233,91.5682 -55.8999,105.1598 -45.652,14.2064 -95.1545,-12.7657 -109.2393,-58.172 -14.6977,-47.3822 13.3082,-98.7407 60.4442,-113.3186 49.1125,-15.1891 102.3271,13.8506 117.398,62.7163 15.6806,50.8427 -14.393,105.9135 -64.9885,121.4773 -52.5728,16.1721 -109.4999,-14.9353 -125.5567,-67.2605 -16.6636,-54.303 15.4778,-113.0865 69.5328,-129.6361 56.0331,-17.1552 116.673,16.0201 133.7154,71.8049 17.6469,57.7632 -16.5625,120.2595 -74.077,137.7948 -59.4934,18.1385 -123.8462,-17.1049 -141.8742,-76.3492 -18.6302,-61.2235 17.6472,-127.4328 78.6213,-145.9535 62.9536,-19.122 131.0195,18.1895 150.0329,80.8934 19.6137,64.6837 -18.7318,134.6062 -83.1656,154.1123 -66.4137,20.1055 -138.1928,-19.2742 -158.1916,-85.4377 -20.5973,-68.1439 19.8165,-141.7796 87.7099,-162.271 69.8739,-21.0892 145.3663,20.3587 166.3503,89.982 21.581,71.6039 -20.901,148.9531 -92.2541,170.4297 -73.334,22.0728 -152.5399,-21.4434 -174.5091,-94.5263 -22.5647,-75.0641 21.9857,-156.1267 96.7984,-178.5884 76.7941,-23.0567 159.7135,22.5279 182.6678,99.0705 23.5486,78.5242 -23.0702,163.3004 -101.3427,186.7472 -80.2541,24.0404 -166.8872,-23.6125 -190.8265,-103.6149 -24.5324,-81.9841 24.1548,-170.474 105.887,-194.9059 83.7142,-25.0243 174.0609,24.6971 198.9852,108.1592 25.5163,85.4442 -25.2393,177.6478 -110.4312,203.0646 -87.1743,26.0083 -181.2347,-25.7816 -207.144,-112.7034 -26.5003,-88.9043 26.3239,-184.8216 114.9755,-211.2234 90.6343,-26.9922 188.4085,26.8662 215.3028,117.2477 27.4842,92.3643 -27.4085,191.9954 -119.5199,219.3821 -94.0943,27.9763 -195.5823,-27.9507 -223.4614,-121.792 -28.4683,-95.8243 28.4929,-199.1692 124.0641,-227.5408 97.5543,-28.9603 202.7562,29.0352 231.6202,126.3363 29.4523,99.2843 -29.5775,206.3431 -128.6084,235.6995 -101.0143,29.9444 -209.9301,-30.1197 -239.7789,-130.8805 -30.4364,-102.7443 30.6619,-213.517 133.1526,-243.8583 104.4743,-30.9284 217.104,31.2042 247.9377,135.4248 31.4205,106.2043 -31.7465,220.691 -137.697,252.017 -107.9342,31.9126 -224.2779,-32.2887 -256.0963,-139.9691 -32.4047,-109.6642 32.8309,-227.8649 142.2412,-260.1757 111.3942,-32.8967 231.4519,33.3732 264.2551,144.5134 33.3888,113.1242 -33.9155,235.0389 -146.7855,268.3344 -114.8542,33.8809 -238.6259,-34.4576 -272.4139,-149.0576 -34.3729,-116.5842 35,-242.2129 151.3298,-276.4932 118.3142,-34.865 245.7999,35.5422 280.5726,153.6019 35.3571,120.0442 -36.0844,249.3869 -155.8741,284.652 -121.7741,35.8492 -252.9739,-36.6267 -288.7313,-158.1463 -36.3413,-123.5041 37.1689,-256.5609 160.4184,-292.8106 125.2341,-36.8334 260.1479,37.7111 296.89,162.6905 37.3255,126.964 -38.2534,263.7349 -164.9626,300.9694 -128.694,37.8176 -267.322,-38.7956 -305.0488,-167.2348 -38.3097,-130.424 39.3379,-270.909 169.5069,-309.1281 132.154,-38.8019 274.4961,39.88 313.2075,171.779 39.294,133.884 -40.4223,278.0831 -174.0512,317.2869 -135.6139,39.7861 -281.6701,-40.9646 -321.3662,-176.3234 -40.2782,-137.3438 41.5068,-285.2571 178.5955,-325.4455 139.0738,-40.7704 288.8442,42.049 329.5249,180.8676 41.2625,140.8038 -42.5912,292.4312 -183.1397,333.6043 -142.5338,41.7546 -296.0183,-43.1335 -337.6837,-185.4119 -42.2468,-144.2637 43.6757,-299.6053 187.684,-341.763 145.9937,-42.739 303.1924,44.2179 345.8424,189.9561 43.2311,147.7237 -44.7601,306.7794 -192.2283,349.9218 -149.4536,43.7232 -310.3664,-45.3024 -354.0011,-194.5005 -44.2153,-151.1836 45.8446,-313.9535 196.7726,-358.0805 152.9135,-44.7074 317.5406,46.3869 362.1598,199.0448 45.1997,154.6435 -46.929,321.1276 -201.3168,366.2392 -156.3735,45.6918 -324.7147,-47.4713 -370.3186,-203.589 -46.1839,-158.1034 48.0135,-328.3018 205.8611,-374.398 159.8334,-46.676 331.8889,48.5558 378.4774,208.1333 47.1682,161.5634 -49.098,335.4759 -210.4055,382.5567 -163.2933,47.6604 -339.0629,-49.6401 -386.636,-212.6776 -48.1526,-165.0232 50.1824,-342.65 214.9497,-390.7154 166.7532,-48.6447 346.2371,50.7246 394.7948,217.2219 49.1368,168.4832 -51.2669,349.8241 -219.494,398.8741 -170.2132,49.629 -353.4113,-51.809 -402.9535,-221.7661 -50.1212,-171.9431 52.3512,-356.9983 224.0382,-407.0329 173.6731,-50.6133 360.5854,52.8935 411.1123,226.3104 51.1055,175.403 -53.4357,364.1725 -228.5826,415.1916 -177.1329,51.5977 -367.7595,-53.9779 -419.2709,-230.8547 -52.0899,-178.8629 54.5201,-371.3466 233.1268,-423.3503 180.5929,-52.582 374.9337,55.0624 427.4297,235.399 53.0742,182.3228 -55.6046,378.5208 -237.6711,431.509 -184.0528,53.5664 -382.1079,-56.1468 -435.5885,-239.9432 -54.0585,-185.7827 56.6891,-385.695 242.2154,-439.6678 187.5127,-54.5507 389.2821,57.2313 443.7472,244.4875 55.0429,189.2427 -57.7735,392.8691 -246.7597,447.8266 -190.9726,55.535 -396.4562,-58.3157 -451.9059,-249.0319 -56.0272,-192.7025 58.8579,-400.0432 251.304,-455.9852 194.4325,-56.5194 403.6304,59.4001 460.0646,253.5761 57.0116,196.1624 -59.9423,407.2174 -255.8482,464.144 -197.8924,57.5037 -410.8046,-60.4846 -468.2234,-258.1204 -57.9959,-199.6224 61.0268,-414.3917 260.3925,-472.3027 201.3523,-58.4881 417.9788,61.569 476.3821,262.6646 58.9803,203.0823 -62.1112,421.5659 -264.9368,480.4615 -204.8122,59.4725 -425.1529,-62.6535 -484.5408,-267.209 -59.9646,-206.5421 63.1957,-428.74 269.4811,-488.6201 208.2721,-60.4569 432.3271,63.7378 492.6995,271.7532 60.9491,210.002 -64.2801,435.9142 -274.0253,496.7789 -211.732,61.4412 -439.5013,-64.8223 -500.8583,-276.2975 -61.9334,-213.462 65.3645,-443.0884 278.5696,-504.9376 215.1919,-62.4256 446.6755,65.9067 509.017,280.8417 62.9178,216.9219 -66.4489,450.2626 -283.1139,513.0964 -218.6518,63.41 -453.8497,-66.9912 -517.1757,-285.3861 -63.9022,-220.3817 67.5334,-457.4367 287.6582,-521.2551 222.1117,-64.3943 461.0239,68.0756 525.3344,289.9304 64.8866,223.8416 -68.6178,464.611 -292.2024,529.4138 -225.5716,65.3787 -468.1981,-69.16 -533.4932,-294.4746 -65.8709,-227.3015 69.7022,-471.7852 296.7467,-537.5726 229.0315,-66.3631 475.3723,70.2445 541.652,299.0189 66.8552,230.7615 -70.7867,478.9594 -301.2911,545.7313 -232.4914,67.3475 -482.5465,-71.3289 -549.8106,-303.5632 -67.8397,-234.2213 71.8711,-486.1336 305.8353,-553.89 235.9513,-68.3318 489.7207,72.4133 557.9694,308.1075 68.824,237.6812 -72.9555,493.3078 -310.3796,562.0487 -239.4112,69.3163 -496.8949,-73.4977 -566.1281,-312.6517 -69.8085,-241.1411 74.0399,-500.482 314.9239,-570.2075 242.871,-70.3006 504.0691,74.5822 574.2868,317.196 70.7928,244.601 -75.1244,507.6563 -319.4682,578.3662 -193.5303,56.0052 -406.7364,-21.4304 -519.7417,-188.0999"
       transform="translate(-471.86997,-4109.7638)" />
    <rect
       style="fill:#000000"
       id="rect3061"
       width="840.22742"
       height="18.82546"
       x="1881.5162"
       y="691.33429"
       transform="matrix(0.78755432,-0.61624524,0.71584595,0.69825824,0,0)" />
    <rect
       style="fill:#000000"
       id="rect3061-6"
       width="840.22742"
       height="18.82546"
       x="-385.30881"
       y="570.94452"
       transform="matrix(0.78755432,-0.61624524,0.71584595,0.69825824,0,0)" />
    <text
       xml:space="preserve"
       style="font-size:40px;font-style:normal;font-weight:normal;line-height:125%;letter-spacing:0px;word-spacing:0px;fill:#000000;fill-opacity:1;stroke:none;font-family:Sans"
       x="37.142857"
       y="423.79105"
       id="text3081"
       sodipodi:linespacing="125%"><tspan
         sodipodi:role="line"
         id="tspan3083"
         x="37.142857"
         y="423.79105">Path of Particle</tspan></text>
    <text
       xml:space="preserve"
       style="font-size:40px;font-style:normal;font-weight:normal;line-height:125%;letter-spacing:0px;word-spacing:0px;fill:#000000;fill-opacity:1;stroke:none;font-family:Sans"
       x="2383.5938"
       y="-1247.5973"
       id="text3081-6"
       sodipodi:linespacing="125%"><tspan
         sodipodi:role="line"
         id="tspan3083-0"
         x="2383.5938"
         y="-1247.5973">Exit Path of Particle</tspan></text>
    <rect
       style="fill:#000000"
       id="rect3106"
       width="45.714218"
       height="42.857796"
       x="734.28571"
       y="115.21946" />
    <rect
       style="fill:#000000"
       id="rect3106-4"
       width="45.714218"
       height="42.857796"
       x="2628.5715"
       y="-1217.6379" />
  </g>
</svg>
