<?xml version="1.0" encoding="UTF-8" standalone="no"?>
<!-- Created with Inkscape (http://www.inkscape.org/) -->

<svg
   xmlns:dc="http://purl.org/dc/elements/1.1/"
   xmlns:cc="http://creativecommons.org/ns#"
   xmlns:rdf="http://www.w3.org/1999/02/22-rdf-syntax-ns#"
   xmlns:svg="http://www.w3.org/2000/svg"
   xmlns="http://www.w3.org/2000/svg"
   xmlns:sodipodi="http://sodipodi.sourceforge.net/DTD/sodipodi-0.dtd"
   xmlns:inkscape="http://www.inkscape.org/namespaces/inkscape"
   width="1920px"
   height="1080px"
   id="svg2985"
   version="1.1"
   inkscape:version="0.48.1 "
   sodipodi:docname="New document 2">
  <defs
     id="defs2987" />
  <sodipodi:namedview
     id="base"
     pagecolor="#ffffff"
     bordercolor="#666666"
     borderopacity="1.0"
     inkscape:pageopacity="0.0"
     inkscape:pageshadow="2"
     inkscape:zoom="0.59197438"
     inkscape:cx="440"
     inkscape:cy="540"
     inkscape:document-units="px"
     inkscape:current-layer="layer1"
     showgrid="false"
     inkscape:window-width="1920"
     inkscape:window-height="1030"
     inkscape:window-x="-8"
     inkscape:window-y="-8"
     inkscape:window-maximized="1" />
  <metadata
     id="metadata2990">
    <rdf:RDF>
      <cc:Work
         rdf:about="">
        <dc:format>image/svg+xml</dc:format>
        <dc:type
           rdf:resource="http://purl.org/dc/dcmitype/StillImage" />
        <dc:title></dc:title>
      </cc:Work>
    </rdf:RDF>
  </metadata>
  <g
     id="layer1"
     inkscape:label="Layer 1"
     inkscape:groupmode="layer">
    <path
       sodipodi:type="spiral"
       style="fill:#cccccc;stroke:#df0000;stroke-width:1px;stroke-linecap:butt;stroke-linejoin:miter;stroke-opacity:1"
       id="path2993"
       sodipodi:cx="706.66669"
       sodipodi:cy="320"
       sodipodi:expansion="1"
       sodipodi:revolution="35.700001"
       sodipodi:radius="539.8045"
       sodipodi:argument="-223.51122"
       sodipodi:t0="0.029999999"
       d="m 690.47372,320.19482 c -1.60454,-9.9709 6.2699,-18.88271 15.95267,-20.16765 12.03526,-1.59713 22.66066,7.94609 23.993,19.68706 1.59974,14.0974 -9.62204,26.44481 -23.42145,27.81834 -16.15843,1.60834 -30.23292,-11.2978 -31.6437,-27.15584 -1.62079,-18.21882 12.97347,-34.02371 30.89024,-35.46904 20.27883,-1.63589 37.81639,14.64904 39.29439,34.62463 1.65284,22.33859 -16.32457,41.61047 -38.35903,43.11973 -24.39818,1.67117 -45.4056,-18.00005 -46.94508,-42.09342 -1.69054,-26.45766 19.67552,-49.20156 45.82782,-50.77042 28.51704,-1.71073 52.99816,21.35095 54.59577,49.5622 1.73155,30.57637 -23.02638,56.79528 -53.2966,58.42112 -32.63564,1.75289 -60.59282,-24.7018 -62.24647,-57.03099 -1.77464,-34.69488 26.37721,-64.39072 60.76539,-66.07181 36.75408,-1.79675 68.18891,28.05261 69.89716,64.49978 1.81915,38.81326 -29.72801,71.98734 -68.23417,73.7225 -40.87242,1.84179 -75.78599,-31.40339 -77.54785,-71.96856 -1.86465,-42.93156 33.07878,-79.58482 75.70296,-81.3732 44.99068,-1.88768 83.38379,34.75417 85.19854,79.43735 1.91086,47.0498 -36.42956,87.18292 -83.17175,89.02389 -49.10891,1.93419 -90.98215,-38.10494 -92.84923,-86.90614 -1.95764,-51.168 39.78032,-94.7815 90.64053,-96.67458 53.2271,-1.98118 98.58094,41.4557 100.49993,94.37493 2.00482,55.28618 -43.13108,102.38046 -98.10932,104.32527 -57.34526,2.02855 -106.18006,-44.80646 -108.15062,-101.84371 -2.05235,-59.40433 46.48183,-109.97972 105.5781,-111.97597 61.4634,-2.07621 113.77945,48.15721 115.80132,109.3125 2.10013,63.52246 -49.83259,117.57922 -113.0469,119.62666 -65.58152,2.12411 -121.37905,-51.50796 -123.452,-116.78129 -2.14814,-67.64058 53.18334,-125.17892 120.51568,-127.27735 69.69964,-2.17221 128.97883,54.85871 131.1027,124.25007 2.19632,71.75869 -56.53409,132.77879 -127.98447,134.92805 -73.81774,2.22048 -136.57877,-58.20946 -138.75339,-131.71886 -2.24466,-75.87679 59.88484,-140.37879 135.45325,-142.57874 77.93584,-2.26888 144.17883,61.56021 146.40409,139.18765 2.29312,79.99488 -63.23559,147.9789 -142.92204,150.22943 -82.05393,2.31739 -151.779,-64.91096 -154.05478,-146.65643 -2.34169,-84.11297 66.58634,-155.57913 150.39082,-157.88013 86.17201,-2.36601 159.37927,68.26171 161.70548,154.12522 2.39035,88.23105 -69.93709,163.17943 -157.85962,165.53082 -90.29008,2.41471 -166.9796,-71.61246 -169.35616,-161.59401 -2.4391,-92.34912 73.28783,-170.7798 165.3284,-173.18151 94.40816,-2.46349 174.58002,74.96321 177.00686,169.0628 2.4879,96.46719 -76.63859,178.38024 -172.79719,180.8322 -98.52623,2.51233 -182.18049,-78.31396 -184.65755,-176.53158 -2.53678,-100.58527 79.98933,-185.98075 180.26597,-188.4829 102.6443,-2.56123 189.78102,81.66471 192.30825,184.00037 2.5857,104.70333 -83.34009,193.5813 -187.73477,196.13359 C 602.23654,516.45703 511.61731,428.83139 509.03997,322.37769 506.4053,213.5563 595.7308,121.1958 704.24352,118.59341 c 110.88042,-2.65917 204.9822,88.36621 207.60963,198.93794 2.68368,112.93946 -90.04158,208.78253 -202.67234,211.43498 -114.99848,2.70821 -212.58286,-91.71695 -215.26032,-206.40673 -2.73274,-117.05751 93.39233,-216.3832 210.14112,-219.08567 119.11654,-2.75728 220.18355,95.0677 222.91102,213.87552 2.78182,121.17557 -96.74308,223.9839 -217.60991,226.73636 C 586.12812,546.89219 481.57845,445.66736 478.80101,322.74151 475.97007,197.44788 578.89483,91.156869 703.8797,88.35445 831.23236,85.498941 939.26472,190.12365 942.09211,317.16754 944.97219,446.57922 838.64753,556.35294 709.54462,559.20529 578.07392,562.10996 466.55884,454.08534 463.68153,322.92341 460.75227,189.39368 570.47685,76.137233 703.6978,73.23497 839.28656,70.281124 954.28438,181.70567 957.21159,316.98564 960.19003,454.63342 847.06551,571.37262 709.72653,574.32477 570.01972,577.32782 451.53914,462.50332 448.56205,323.10532 445.53439,181.33948 562.05887,61.117511 703.51589,58.115491 847.34075,55.06322 969.30412,173.28769 972.33107,316.80373 975.40795,462.68761 855.4835,586.39238 709.90843,589.44425 561.96553,592.54576 436.51936,470.9213 433.44257,323.28722 430.31643,173.28529 553.64089,46.097715 703.33399,42.996011 855.39494,39.845243 984.32393,164.8697 987.45055,316.62182 990.62595,470.7418 863.90148,601.41221 710.09034,604.56373 553.91134,607.76377 421.49951,479.33929 418.32309,323.46913 415.09841,165.2311 545.22291,31.077858 703.15208,27.876531 863.44913,24.627205 999.3438,156.45172 1002.57,316.43992 1005.844,478.79599 872.31946,616.43209 710.27225,619.68321 545.85715,622.98183 406.47962,487.75727 403.20361,323.65104 399.88033,157.17691 536.80492,16.057949 702.97017,12.757051 871.50332,9.4091149 1014.3637,148.03374 1017.6895,316.25801 1021.0621,486.85018 880.73744,631.45202 710.45415,634.80269 537.80296,638.19995 391.45967,496.17525 388.08413,323.83294 384.6622,149.12273 528.38694,1.0379943 702.78827,-2.3624286 879.5575,-5.8090204 1029.3837,139.61576 1032.809,316.07611 1036.2802,494.90436 889.15542,646.472 710.63606,649.92217 529.74878,653.4181 376.43969,504.59323 372.96465,324.01485 369.44404,141.06855 519.96896,-13.981999 702.60636,-17.481908 887.61169,-21.027195 1044.4037,131.19778 1047.9285,315.8942 1051.4984,502.95854 897.5734,661.49201 710.81796,665.04165 521.6946,668.63629 361.41967,513.01121 357.84517,324.19675 354.22584,133.01436 511.55098,-29.002027 702.42446,-32.601388 895.66587,-36.245403 1059.4237,122.7798 1063.0479,315.71229 1066.7166,511.01273 905.99138,676.51205 710.99987,680.16113 513.64042,683.85452 346.39962,521.42919 342.72569,324.37866 339.00761,124.96018 503.133,-44.022084 702.24255,-47.720868 903.72005,-51.463641 1074.4438,114.36182 1078.1674,315.53039 1081.9349,519.06691 914.40936,691.53212 711.18178,695.28061 505.58624,699.07277 331.37954,529.84717 327.60621,324.56057 323.78935,116.90601 494.71502,-59.042167 702.06064,-62.840348 911.77423,-66.681905 1089.4639,105.94384 1093.2869,315.34848 1097.1532,527.12108 922.82734,706.55222 711.36368,710.40009 497.53206,714.29105 316.35944,538.26515 312.48673,324.74247 308.57107,108.85183 486.29704,-74.062274 701.87874,-77.959828 919.8284,-81.900192 1104.484,97.525859 1108.4064,315.16658 1112.3715,535.17526 931.24532,721.57234 711.54559,725.51957 489.47788,729.50934 301.33932,546.68313 297.36725,324.92438 293.35277,100.79765 477.87906,-89.082402 701.69683,-93.079307 927.88258,-97.1185 1119.5041,89.107879 1123.5259,314.98467 1127.5898,543.22944 939.6633,736.59247 711.72749,740.63905 481.42371,744.72766 286.31918,555.10111 282.24777,325.10628 278.13444,92.743475 469.46108,-104.10255 701.51493,-108.19879 935.93676,-112.33683 1134.5243,80.689899 1138.6453,314.80276 1142.8081,551.28361 948.08128,751.61263 711.9094,755.75853 473.36953,759.946 271.29902,563.51909 267.12829,325.28819 262.9161,84.6893 461.0431,-119.12271 701.33302,-123.31827 943.99093,-127.55517 1149.5444,72.27192 1153.7648,314.62086 1158.0264,559.33779 956.49926,766.6328 712.09131,770.87801 465.31536,775.16435 256.27884,571.93707 252.00881,325.4701 c -4.31106,-248.834975 200.61631,-459.61299 449.1423,-463.90785 250.894,-4.33578 463.41349,202.29169 467.73319,452.8767 4.3605,252.95301 -203.96706,467.21403 -456.61109,471.55854 C 457.26118,790.38271 241.25866,580.35505 236.88933,325.652 232.47938,68.580952 444.20714,-149.16308 700.96921,-153.55723 960.09928,-157.9919 1179.5848,55.435961 1184.0038,314.25705 1188.4632,575.44614 973.33522,796.67318 712.45512,801.11697 449.20701,805.60109 226.23846,588.77303 221.76985,325.83391 217.261,60.526778 435.78916,-164.18328 700.7873,-168.67671 968.15345,-173.21028 1194.605,47.017982 1199.1233,314.07514 1203.6816,583.50031 981.7532,811.69339 712.63702,816.23645 441.15284,820.81948 211.21824,597.19101 206.65037,326.01581 202.04261,52.472605 427.37118,-179.2035 700.6054,-183.79619 976.20762,-188.42868 1209.6252,38.600002 1214.2427,313.89323 1218.9,591.55448 990.17118,826.71361 712.81893,831.35593 433.09866,836.03788 196.19802,605.60899 191.53089,326.19772 186.82421,44.418433 418.95321,-194.22372 700.42349,-198.91567 984.2618,-203.64708 1224.6455,30.182023 1229.3622,313.71133 1234.1184,599.60865 998.58916,841.73384 713.00084,846.47541 425.04449,851.25629 181.17779,614.02697 176.41141,326.37963 171.60579,36.364261 410.53523,-209.24396 700.24158,-214.03515 c 292.07439,-4.83035 539.42412,235.799194 544.24012,527.56457 2.4187,146.53224 -56.6444,290.42546 -161.1511,393.13997"
       transform="matrix(0.98754912,0,0,0.94660504,218.84568,221.88454)" />
    <path
       sodipodi:type="spiral"
       style="fill:none;stroke:#df0000;stroke-width:1.00014436;stroke-linecap:butt;stroke-linejoin:miter;stroke-miterlimit:4;stroke-opacity:1;stroke-dasharray:none"
       id="path2993-1"
       sodipodi:cx="706.66669"
       sodipodi:cy="320"
       sodipodi:expansion="1"
       sodipodi:revolution="37.400002"
       sodipodi:radius="539.8045"
       sodipodi:argument="-223.51122"
       sodipodi:t0="0.029999999"
       d="m 691.23664,315.08434 c 1.67339,-9.89661 11.89903,-15.81653 21.441,-13.95245 11.76482,2.29832 18.7366,14.55391 16.29522,25.97435 -2.91456,13.63399 -17.21026,21.66184 -30.50771,18.638 -15.5039,-3.52558 -24.59041,-19.86756 -20.98077,-35.04106 4.1332,-17.37438 22.52551,-27.52129 39.57442,-23.32356 19.24527,4.73851 30.45379,25.18395 25.66633,44.10778 -5.34216,21.11648 -27.84272,33.3875 -48.64114,28.00911 -22.98793,-5.94458 -36.32212,-30.50177 -30.35188,-53.1745 6.54608,-24.85958 33.16103,-39.25745 57.70785,-32.69466 26.7314,7.14686 42.19336,35.82046 35.03744,62.24122 -7.74706,28.60333 -38.48002,45.12971 -66.77457,37.38021 -30.47538,-8.34681 -48.06645,-41.1397 -39.72299,-71.30793 8.94617,-32.34751 43.79947,-51.00348 75.84128,-42.06576 34.21972,9.54522 53.94078,46.45932 44.40855,80.37464 -10.14402,36.09199 -49.11924,56.87829 -84.908,46.75132 -37.96431,-10.74259 -59.81599,-51.77922 -49.0941,-89.44136 11.34097,-39.83668 54.43925,-62.75385 93.97471,-51.43687 41.7091,11.93918 65.69186,57.09932 53.77965,98.50807 -12.53726,43.58154 -59.75942,68.62997 -103.04142,56.12242 -45.45402,-13.13521 -71.5682,-62.41956 -58.4652,-107.57478 13.73306,-47.32652 65.07973,-74.50652 112.10814,-60.80798 49.19905,14.33082 77.44492,67.73994 63.15075,116.6415 -14.92848,51.0716 -70.40016,80.3834 -121.17485,65.49353 -52.94417,-15.52608 -83.32195,-73.0604 -67.83631,-125.70821 16.1236,-54.81676 75.72066,-86.26055 130.24157,-70.17908 56.68936,16.72107 89.1992,78.38094 72.52186,134.77492 -17.31848,58.56198 -81.04124,92.13791 -139.30828,74.86464 -60.43461,-17.91585 -95.07666,-83.70155 -77.20742,-143.84164 18.51317,-62.30725 86.36187,-98.01545 148.375,-79.55019 64.1799,19.11044 100.95427,89.0222 81.89296,152.90835 -19.70768,66.05256 -91.68254,103.89313 -157.44171,84.23574 -67.92523,-20.30488 -106.83201,-94.3429 -86.57851,-161.97506 20.90206,-69.79791 97.00326,-109.77094 166.50842,-88.9213 71.6706,21.49921 112.70988,99.66364 91.26407,171.04178 -22.09633,73.54329 -102.32402,115.64885 -175.57514,93.60685 -75.41599,-22.69343 -118.58783,-104.9844 -95.94962,-180.10849 23.2905,-77.2887 107.6448,-121.52685 184.64185,-98.29241 79.16141,23.88756 124.46587,110.30521 100.63518,189.17521 C 828.25868,447.57082 739.77766,493.94162 659.0347,469.51465 576.12785,444.43304 528.69072,353.88863 553.71397,271.27273 579.39257,186.49315 672.00041,137.98966 756.48925,163.60922 843.14156,189.8848 892.71141,284.55608 866.49554,370.91786 839.62298,459.4429 742.88825,510.07912 654.65354,483.26692 564.25576,455.79741 512.55316,356.9992 539.9617,266.89156 568.02815,174.62104 668.88986,121.85205 760.87041,149.85695 855.01369,178.52033 908.84908,281.44554 880.2478,375.29902 850.98751,471.31504 745.99877,526.21683 650.27238,497.01918 552.38361,467.16198 496.4154,360.1097 526.20944,262.5104 556.66354,162.74887 665.77936,105.71425 765.25157,136.10468 866.88586,167.15567 924.98691,278.33506 894.00007,379.68018 862.35221,483.18722 749.10924,542.35471 645.89122,510.77145 540.51141,478.52672 480.27749,363.22016 512.45717,258.12924 545.29876,150.87667 662.66892,89.576308 769.63274,122.35242 878.75808,155.79086 941.12488,275.22463 907.75234,384.06134 873.71704,495.05945 752.21966,558.49271 641.51006,524.52372 528.63918,489.89159 464.13946,366.33058 498.7049,253.74808 533.93387,139.00443 659.55851,73.438252 774.0139,108.60015 890.63032,144.42594 957.26296,272.11423 921.5046,388.4425 885.08199,506.9317 755.33005,574.63081 637.1289,538.27598 516.76692,501.25656 448.00133,369.44096 484.95264,249.36692 522.56887,127.13216 656.44814,57.300102 778.39506,94.847882 902.5026,133.06092 973.40114,269.00386 935.25687,392.82366 896.44703,518.80398 758.44041,590.769 632.74774,552.02825 504.89463,512.62162 431.86312,372.55131 471.20037,244.98576 511.20379,115.25987 653.33779,41.161873 782.77622,81.095615 914.37489,121.69582 989.53938,265.89352 949.00914,397.20482 907.81215,530.67628 761.55075,606.90727 628.36657,565.78052 493.02233,523.98675 415.72485,375.66164 457.4481,240.6046 499.83864,103.38756 650.22746,25.023579 787.15738,67.343348 926.24721,110.33066 1005.6777,262.7832 962.76141,401.58598 919.17733,542.5486 764.66107,623.04559 623.98541,579.53279 481.15001,535.35194 399.58651,378.77196 443.69583,236.22344 488.47344,91.515235 647.11715,8.8852304 791.53854,53.59108 938.11954,98.96544 1021.8161,259.67289 976.51367,405.96714 930.54256,554.42093 767.77137,639.18396 619.60425,593.28505 469.27767,546.71719 383.44812,381.88225 429.94357,231.84227 477.10818,79.642895 644.00686,-7.2531657 795.9197,39.838813 949.99188,87.600172 1037.9545,256.5626 990.26594,410.34831 941.90784,566.29328 770.88165,655.32238 615.22309,607.03732 457.40532,558.08248 367.3097,384.99253 416.1913,227.46111 465.74288,67.770543 640.89658,-23.391602 800.30086,26.086546 961.86423,76.234863 1054.0929,253.45233 1004.0182,414.72947 953.27316,578.16564 773.99192,671.46083 610.84193,620.78959 445.53296,569.44781 351.17123,388.1028 402.43903,223.07995 454.37754,55.898181 637.78632,-39.530074 804.68202,12.334279 973.7366,64.869519 1070.2314,250.34207 1017.7705,419.11063 964.63851,590.038 777.10219,687.59932 606.46077,634.54185 433.66059,580.81317 335.03274,391.21306 388.68677,218.69879 443.01218,44.02581 634.67606,-55.668576 809.06319,-1.4179883 985.60897,53.504143 1086.3699,247.23181 1031.5227,423.49179 976.00389,601.91038 780.21244,703.73784 602.07961,648.29412 421.78821,592.17856 318.89422,394.32331 374.9345,214.31763 431.64678,32.153431 631.56581,-71.807105 813.44435,-15.170255 997.48135,42.13874 1102.5084,244.12157 1045.275,427.87295 987.3693,613.78276 783.32268,719.87638 597.69845,662.04639 409.91583,603.54397 302.75567,397.43355 361.18223,209.93647 420.28136,20.281044 628.45557,-87.945657 817.82551,-28.922523 1009.3537,30.773314 1118.647,241.01133 1059.0273,432.25411 998.73473,625.65515 786.43292,736.01494 593.31729,675.79866 398.04344,614.90941 286.6171,400.54379 347.42996,205.55531 408.91592,8.4086521 625.34534,-104.08423 822.20667,-42.67479 1021.2261,19.407866 1134.7856,237.9011 1072.7795,436.63527 1010.1002,637.52755 789.54315,752.15352 588.93612,689.55092 386.17104,626.27487 270.47851,403.65402 333.6777,201.17415 397.55045,-3.4637457 622.23512,-120.22282 826.58783,-56.427057 1033.0985,8.0423992 1150.9242,234.79087 1086.5318,441.01643 1021.4657,649.39995 792.65337,768.29212 584.55496,703.30319 374.29864,637.64034 254.33991,406.76424 319.92543,196.79299 386.18497,-15.336148 619.1249,-136.36143 830.96899,-70.179324 1044.9709,-3.3230845 1167.0628,231.68065 1100.2841,445.3976 1032.8311,661.27235 795.76359,784.43074 580.1738,717.05546 362.42623,649.00583 238.20129,409.87445 306.17316,192.41182 374.81948,-27.208556 616.01468,-152.50005 835.35015,-83.931591 1056.8433,-14.688583 1183.2014,228.57044 1114.0363,449.77876 1044.1966,673.14476 798.8738,800.56937 575.79264,730.80772 350.55382,660.37134 222.06266,412.98466 292.4209,188.03066 363.45397,-39.080967 612.90447,-168.63869 839.73131,-97.683858 1068.7158,-26.054096 1199.34,225.46023 1127.7886,454.15992 1055.5622,685.01717 801.98401,816.70801 571.41148,744.55999 338.68141,671.73686 205.92401,416.09487 278.66863,183.6495 352.08845,-50.953382 609.79426,-184.77734 844.11248,-111.43613 1080.5882,-37.419621 1215.4787,222.35003 1141.5409,458.54108 1066.9277,696.88959 805.09421,832.84667 567.03032,758.31226 326.80899,683.10239 189.78535,419.20508 264.91636,179.26834 340.72292,-62.8258 606.68406,-200.916 848.49364,-125.18839 1092.4606,-48.785157 1231.6174,219.23982 1155.2931,462.92224 1078.2932,708.76201 808.20441,848.98534 562.64916,772.06453 314.93657,694.46793 173.64668,422.31528 251.16409,174.88718 329.35737,-74.698221 603.57386,-217.05467 852.8748,-138.94066 1104.333,-60.150703 1247.756,216.12963 1169.0454,467.3034 1089.6588,720.63443 811.31461,865.12401 558.268,785.81679 303.06415,705.83348 157.50801,425.42547 237.41183,170.50602 317.99182,-86.570644 600.46367,-233.19335 857.25596,-152.69293 1116.2054,-71.516259 1263.8947,213.01943 1182.7977,471.68456 1101.0243,732.50686 814.42481,881.26269 553.88683,799.56906 291.19172,717.19904 141.36932,428.53567 223.65956,166.12486 306.62626,-98.44307 597.35347,-249.33204 861.63712,-166.44519 1128.0779,-82.881823 1280.0334,209.90924 1196.5499,476.06572 1112.3899,744.37928 817.535,897.40139 549.50567,813.32133 279.3193,728.56461 125.23063,431.64586 209.90729,161.7437 295.26069,-110.3155 594.24328,-265.47073 866.01828,-180.19746 1139.9503,-94.247395 1296.1721,206.79905 1210.3022,480.44688 1123.7555,756.25171 820.64519,913.54008 545.12451,827.07359 267.44687,739.93018 109.09193,434.75605 196.15503,157.36253 c 87.74008,-279.55046 394.97806,-438.97197 674.24441,-351.31226 30.19428,9.47777 59.54927,21.61837 87.61843,36.23487"
       transform="matrix(0.98754912,0,0,0.94660504,218.30863,220.61946)" />
    <text
       xml:space="preserve"
       style="font-size:40px;font-style:normal;font-weight:normal;line-height:125%;letter-spacing:0px;word-spacing:0px;fill:#000000;fill-opacity:1;stroke:none;font-family:Sans"
       x="52.36713"
       y="47.860744"
       id="text3783"
       sodipodi:linespacing="125%"><tspan
         sodipodi:role="line"
         id="tspan3785"
         x="52.36713"
         y="47.860744">Radial Accelerator Module</tspan></text>
  </g>
</svg>
