<svg width="640" height="480" xmlns="http://www.w3.org/2000/svg">
 <!-- Created with SVG-edit - http://svg-edit.googlecode.com/ -->
 <g>
  <title>Layer 1</title>
  <line fill="none" stroke="#000000" stroke-width="5" x1="102" y1="57" x2="602" y2="58" id="svg_1"/>
  <line fill="none" stroke-width="5" x1="52" y1="422" x2="552" y2="425" id="svg_2" stroke="#000000"/>
  <line fill="none" stroke="#000000" stroke-width="5" stroke-dasharray="null" stroke-linejoin="null" stroke-linecap="null" x1="103" y1="56" x2="54" y2="422" id="svg_4"/>
  <line fill="none" stroke-width="5" stroke-dasharray="null" stroke-linejoin="null" stroke-linecap="null" x1="601.5" y1="57.49999" x2="551.5" y2="425.5" id="svg_6" stroke="#000000"/>
  <line stroke="#FF0000" fill="none" stroke-width="5" stroke-dasharray="null" stroke-linejoin="null" stroke-linecap="null" x1="105" y1="404" x2="58" y2="404" id="svg_10"/>
  <line stroke="#FF0000" transform="rotate(98.4403 126.555 241.992)" id="svg_3" fill="none" stroke-width="5" stroke-dasharray="null" stroke-linejoin="null" stroke-linecap="null" x1="286.94878" y1="241.99207" x2="-33.83854" y2="241.99207"/>
  <line stroke="#FF0000" id="svg_8" transform="rotate(98.5539 151.554 240.766)" fill="none" stroke-width="5" stroke-dasharray="null" stroke-linejoin="null" stroke-linecap="null" x1="307.515833" y1="240.766044" x2="-4.407248" y2="240.766044"/>
  <line stroke="#FF0000" id="svg_9" transform="rotate(98.4403 178 244.5)" fill="none" stroke-width="5" stroke-dasharray="null" stroke-linejoin="null" stroke-linecap="null" x1="338.39365" y1="244.50001" x2="17.60633" y2="244.50001"/>
  <line stroke="#FF0000" id="svg_11" transform="rotate(98.4403 205.043 241.471)" fill="none" stroke-width="5" stroke-dasharray="null" stroke-linejoin="null" stroke-linecap="null" x1="358.330804" y1="241.470842" x2="51.755618" y2="241.470842"/>
  <line stroke="#FF0000" id="svg_12" transform="rotate(98.4403 228.395 245.836)" fill="none" stroke-width="5" stroke-dasharray="null" stroke-linejoin="null" stroke-linecap="null" x1="386.096056" y1="245.836025" x2="70.694931" y2="245.836025"/>
  <line stroke="#FF0000" id="svg_13" transform="rotate(98.4403 255.737 243.535)" fill="none" stroke-width="5" stroke-dasharray="null" stroke-linejoin="null" stroke-linecap="null" x1="411.111148" y1="243.535108" x2="100.362284" y2="243.535108"/>
  <ellipse id="svg_18" cy="193" cx="412" stroke-linecap="null" stroke-linejoin="null" stroke-dasharray="null" stroke-width="5" stroke="#FF0000" fill="none"/>
  <ellipse id="svg_19" cy="190" cx="402" stroke-linecap="null" stroke-linejoin="null" stroke-dasharray="null" stroke-width="5" stroke="#FF0000" fill="none"/>
  <ellipse id="svg_20" cy="174" cx="396" stroke-linecap="null" stroke-linejoin="null" stroke-dasharray="null" stroke-width="5" stroke="#FF0000" fill="none"/>
  <g id="svg_5" transform="rotate(-140 324.753 297.443) matrix(0.120349 0 0 0.115479 359.38 52.5266)">
   <svg width="400" height="400" id="svg_15" x="-224.09556" y="1647.80669">
    <path d="m20,200l340,-200l0,0l-340,200z" fill="#ff0000" id="svg_22"/>
   </svg>
  </g>
  <path stroke="#FF0000" fill="none" stroke-width="5" stroke-dasharray="null" stroke-linejoin="null" stroke-linecap="null" d="m154.690598,92.016273l0,0c9.397049,0 17.015076,-5.727959 17.015076,-12.793495c0,-7.065735 -7.618027,-12.793472 -17.015076,-12.793472l0,0c5.35524,3.020134 8.508057,7.759918 8.508057,12.793472c0,5.033363 -3.152817,9.773415 -8.508057,12.793495z" id="svg_23" transform="rotate(-80.0727 163.198 79.2228)"/>
  <path id="svg_24" fill="none" stroke-width="5" stroke-dasharray="null" stroke-linejoin="null" stroke-linecap="null" d="m130.974243,416.763306l0,0c10.933868,0 19.79776,-6.064209 19.79776,-13.544586c0,-7.48056 -8.863892,-13.544586 -19.79776,-13.544586l0,0c6.231049,3.197449 9.899475,8.215485 9.899475,13.544586c0,5.328888 -3.668427,10.347198 -9.899475,13.544586z" stroke="#FF0000" transform="rotate(97.2546 140.873 403.219)"/>
  <path id="svg_25" fill="none" stroke-width="5" stroke-dasharray="null" stroke-linejoin="null" stroke-linecap="null" d="m204.865295,98.522003l0,0c10.933899,0 19.797791,-6.06424 19.797791,-13.544601c0,-7.48056 -8.863892,-13.544586 -19.797791,-13.544586l0,0c6.231079,3.197449 9.899506,8.215515 9.899506,13.544586c0,5.328873 -3.668427,10.347214 -9.899506,13.544601z" stroke="#FF0000" transform="rotate(-80.0727 214.764 84.9774)"/>
  <path id="svg_26" fill="none" stroke-width="5" stroke-dasharray="null" stroke-linejoin="null" stroke-linecap="null" d="m256.865295,97.522003l0,0c10.933899,0 19.797791,-6.06424 19.797791,-13.544601c0,-7.48056 -8.863892,-13.544586 -19.797791,-13.544586l0,0c6.231079,3.197449 9.899506,8.215515 9.899506,13.544586c0,5.328873 -3.668427,10.347214 -9.899506,13.544601z" stroke="#FF0000" transform="rotate(-80.0727 266.764 83.9774)"/>
  <path stroke="#FF0000" id="svg_27" fill="none" stroke-width="5" stroke-dasharray="null" stroke-linejoin="null" stroke-linecap="null" d="m183.415146,417.435516l0,0c11.073364,0 20.050323,-5.620087 20.050323,-12.552612c0,-6.932678 -8.976959,-12.552582 -20.050323,-12.552582l0,0c6.310547,2.963257 10.025772,7.6138 10.025772,12.552582c0,4.938629 -3.715225,9.589386 -10.025772,12.552612z" transform="rotate(97.2546 193.44 404.883)"/>
  <line stroke="#FF0000" id="svg_28" transform="rotate(98.4403 283.602 245.441)" fill="none" stroke-width="5" stroke-dasharray="null" stroke-linejoin="null" stroke-linecap="null" x1="439.892503" y1="245.441002" x2="127.312095" y2="245.441002"/>
  <path id="svg_29" fill="none" stroke-width="5" stroke-dasharray="null" stroke-linejoin="null" stroke-linecap="null" d="m235.541138,418.426666l0,0c10.933868,0 19.79776,-6.06424 19.79776,-13.544617c0,-7.48056 -8.863892,-13.544586 -19.79776,-13.544586l0,0c6.231049,3.197449 9.899475,8.215485 9.899475,13.544586c0,5.328888 -3.668427,10.347198 -9.899475,13.544617z" stroke="#FF0000" transform="rotate(97.2546 245.44 404.883)"/>
  <line stroke="#FF0000" id="svg_30" transform="rotate(98.4403 312 246.5)" fill="none" stroke-width="5" stroke-dasharray="null" stroke-linejoin="null" stroke-linecap="null" x1="468.290188" y1="246.500002" x2="155.709779" y2="246.500002"/>
  <line stroke="#FF0000" id="svg_31" transform="rotate(98.4403 341 247.5)" fill="none" stroke-width="5" stroke-dasharray="null" stroke-linejoin="null" stroke-linecap="null" x1="497.290188" y1="247.500002" x2="184.709779" y2="247.500002"/>
  <line stroke="#FF0000" id="svg_32" transform="rotate(98.4403 369.592 244.514)" fill="none" stroke-width="5" stroke-dasharray="null" stroke-linejoin="null" stroke-linecap="null" x1="521.851675" y1="244.513607" x2="217.331404" y2="244.513607"/>
  <line stroke="#FF0000" id="svg_33" transform="rotate(98.4403 400 248.5)" fill="none" stroke-width="5" stroke-dasharray="null" stroke-linejoin="null" stroke-linecap="null" x1="556.290188" y1="248.500002" x2="243.709779" y2="248.500002"/>
  <line stroke="#FF0000" id="svg_34" transform="rotate(98.4403 429.04 247.229)" fill="none" stroke-width="5" stroke-dasharray="null" stroke-linejoin="null" stroke-linecap="null" x1="578.827532" y1="247.228565" x2="279.253113" y2="247.228565"/>
  <line stroke="#FF0000" id="svg_35" transform="rotate(98.4403 458.755 250.889)" fill="none" stroke-width="5" stroke-dasharray="null" stroke-linejoin="null" stroke-linecap="null" x1="606.563992" y1="250.889473" x2="310.946233" y2="250.889473"/>
  <line stroke="#FF0000" id="svg_36" transform="rotate(1.55263 563.255 109.813)" fill="none" stroke-width="5" stroke-dasharray="null" stroke-linejoin="null" stroke-linecap="null" x1="591.232094" y1="109.813017" x2="535.278575" y2="109.813017"/>
  <path stroke="#FF0000" id="svg_37" fill="none" stroke-width="5" stroke-dasharray="null" stroke-linejoin="null" stroke-linecap="null" d="m293.667755,420.419464l0,0c10.794373,0 19.545197,-6.508362 19.545197,-14.536591c0,-8.028442 -8.750824,-14.536591 -19.545197,-14.536591l0,0c6.15155,3.431641 9.773193,8.817169 9.773193,14.536591c0,5.719147 -3.621643,11.105011 -9.773193,14.536591z" transform="rotate(97.2546 303.44 405.883)"/>
  <path id="svg_38" fill="none" stroke-width="5" stroke-dasharray="null" stroke-linejoin="null" stroke-linecap="null" d="m311.865295,99.522064l0,0c10.933899,0 19.797821,-6.06424 19.797821,-13.544601c0,-7.48056 -8.863922,-13.544571 -19.797821,-13.544571l0,0c6.231079,3.197418 9.899536,8.2155 9.899536,13.544571c0,5.328873 -3.668457,10.347214 -9.899536,13.544601z" stroke="#FF0000" transform="rotate(-80.0727 321.764 85.9775)"/>
  <path id="svg_39" fill="none" stroke-width="5" stroke-dasharray="null" stroke-linejoin="null" stroke-linecap="null" d="m369.865356,99.522034l0,0c10.933899,0 19.797821,-6.064224 19.797821,-13.544586c0,-7.48056 -8.863922,-13.544571 -19.797821,-13.544571l0,0c6.231079,3.197418 9.899506,8.2155 9.899506,13.544571c0,5.328888 -3.668427,10.347214 -9.899506,13.544586z" stroke="#FF0000" transform="rotate(-80.0727 379.764 85.9775)"/>
  <path id="svg_40" stroke="#FF0000" fill="none" stroke-width="5" stroke-dasharray="null" stroke-linejoin="null" stroke-linecap="null" d="m351.675171,420.447021l0,0c10.794342,0 19.545166,-6.508362 19.545166,-14.536591c0,-8.028442 -8.750824,-14.536591 -19.545166,-14.536591l0,0c6.15155,3.431641 9.773163,8.817169 9.773163,14.536591c0,5.719147 -3.621613,11.105011 -9.773163,14.536591z" transform="rotate(97.2546 361.447 405.911)"/>
  <path id="svg_41" fill="none" stroke-width="5" stroke-dasharray="null" stroke-linejoin="null" stroke-linecap="null" d="m427.865417,103.522079l0,0c10.933899,0 19.797821,-6.064224 19.797821,-13.544586c0,-7.48056 -8.863922,-13.544571 -19.797821,-13.544571l0,0c6.231079,3.197418 9.899506,8.2155 9.899506,13.544571c0,5.328903 -3.668427,10.347214 -9.899506,13.544586z" stroke="#FF0000" transform="rotate(-80.0727 437.764 89.9776)"/>
  <path id="svg_42" stroke="#FF0000" fill="none" stroke-width="5" stroke-dasharray="null" stroke-linejoin="null" stroke-linecap="null" d="m411.675201,420.446106l0,0c10.794312,0 19.545135,-6.508362 19.545135,-14.536591c0,-8.028473 -8.750824,-14.536591 -19.545135,-14.536591l0,0c6.15152,3.431641 9.773132,8.817169 9.773132,14.536591c0,5.719147 -3.621613,11.105011 -9.773132,14.536591z" transform="rotate(97.2546 421.447 405.91)"/>
  <path id="svg_43" fill="none" stroke-width="5" stroke-dasharray="null" stroke-linejoin="null" stroke-linecap="null" d="m485.865509,112.522095l0,0c10.933899,0 19.797821,-6.064209 19.797821,-13.544586c0,-7.48056 -8.863922,-13.544571 -19.797821,-13.544571l0,0c6.231079,3.197418 9.899506,8.2155 9.899506,13.544571c0,5.328903 -3.668427,10.347214 -9.899506,13.544586z" stroke="#FF0000" transform="rotate(-80.0727 495.764 98.9776)"/>
  <line id="svg_44" stroke="#FF0000" transform="rotate(98.4403 485 257.5)" fill="none" stroke-width="5" stroke-dasharray="null" stroke-linejoin="null" stroke-linecap="null" x1="632.809461" y1="257.50045" x2="337.191701" y2="257.50045"/>
  <line id="svg_45" stroke="#FF0000" transform="rotate(98.4403 515 254.5)" fill="none" stroke-width="5" stroke-dasharray="null" stroke-linejoin="null" stroke-linecap="null" x1="662.809461" y1="254.50045" x2="367.191701" y2="254.50045"/>
  <path id="svg_46" stroke="#FF0000" fill="none" stroke-width="5" stroke-dasharray="null" stroke-linejoin="null" stroke-linecap="null" d="m467.675293,422.446198l0,0c10.794342,0 19.545135,-6.508362 19.545135,-14.536591c0,-8.028473 -8.750793,-14.536591 -19.545135,-14.536591l0,0c6.15155,3.431641 9.773132,8.817169 9.773132,14.536591c0,5.719147 -3.621582,11.105011 -9.773132,14.536591z" transform="rotate(97.2546 477.447 407.91)"/>
  <line id="svg_47" fill="none" stroke="#000000" stroke-width="5" stroke-dasharray="null" stroke-linejoin="null" stroke-linecap="null" x1="79.5" y1="84.5" x2="30.5" y2="450.5"/>
  <line stroke="#000000" transform="rotate(82.7323 279.5 449)" id="svg_48" fill="none" stroke-width="5" stroke-dasharray="null" stroke-linejoin="null" stroke-linecap="null" x1="310.671649" y1="201.828432" x2="248.3283" y2="696.171545"/>
  <line stroke="#000000" id="svg_49" fill="none" stroke-width="5" stroke-dasharray="null" stroke-linejoin="null" stroke-linecap="null" x1="101.5" y1="57.5" x2="78.499999" y2="83.500001"/>
  <line id="svg_51" stroke="#000000" fill="none" stroke-width="5" stroke-dasharray="null" stroke-linejoin="null" stroke-linecap="null" x1="52.5" y1="423.5" x2="29.499999" y2="449.500001"/>
  <line stroke="#000000" id="svg_52" fill="none" stroke-width="5" stroke-dasharray="null" stroke-linejoin="null" stroke-linecap="null" x1="550.5" y1="425.5" x2="527.500001" y2="448.5"/>
 </g>
</svg>